# xmcd
#
# Track frame offsets:
#	300
#	17252
#	34282
#	66209
#	96506
#	123771
#	160250
#
# Disc length: 2342 seconds
#
# Revision: 0
# Processed by: cddbd v1.5PL3 Copyright (c) Steve Scherf et al.
# Submitted via: audiograbber 1.83.01
#
DISCID=54092207
DTITLE=Eamon - F**K It (I Don't Want You Back)
DYEAR=2004
DGENRE=R&B
TTITLE0=F**K It (Dirty)
TTITLE1=I Don't Want You Back - Clean
TTITLE2=F**K It  (George's Anthem Mix Dirty)
TTITLE3=F**K It  (Giuseppe's Mix Dirty)
TTITLE4=F**K It  (F**ked Dub Dirty)
TTITLE5=F**K It  (Teri and Tod's Speak And Spell Remix Dirty)
TTITLE6=F**K It  (FCM Remix Dirty)
EXTD=
EXTT0=
EXTT1=
EXTT2=
EXTT3=
EXTT4=
EXTT5=
EXTT6=
PLAYORDER=
